<svg width="1200" height="630" viewBox="0 0 1200 630" xmlns="http://www.w3.org/2000/svg"><defs><pattern id="d" width="22" height="22" patternUnits="userSpaceOnUse"><circle cx="1" cy="1" r="1" fill="#21212A" opacity=".07"/></pattern><radialGradient id="a"><stop stop-color="#7C5CFF" stop-opacity=".12"/><stop offset="1" stop-color="#7C5CFF" stop-opacity="0"/></radialGradient></defs><rect width="1200" height="630" fill="#FFFFFF"/><rect width="1200" height="630" fill="url(#d)"/><circle cx="210" cy="600" r="480" fill="url(#a)"/><path d="M106 70 90 78 81 134 97 126Z M137 62 121 70 112 134 128 126Z M168 70 152 78 143 126 159 118Z" fill="#7C5CFF"/><text x="198" y="108" fill="#21212A" font-family="monospace" font-size="25" letter-spacing="4">DGC · DOCS</text><rect x="393" y="86" width="9" height="26" fill="#7C5CFF"/><text x="82" y="278" fill="#21212A" font-family="sans-serif" font-size="72" font-weight="500" letter-spacing="-3">Own the whole loop.</text><text x="84" y="334" fill="#535360" font-family="sans-serif" font-size="26">Install · connect · plan · edit · verify.</text><g font-family="monospace" font-size="18"><rect x="84" y="425" width="230" height="58" rx="8" fill="#F7F7FA" stroke="#E3E3EB"/><text x="108" y="461" fill="#21212A">GETTING STARTED</text><rect x="326" y="425" width="190" height="58" rx="8" fill="#F7F7FA" stroke="#E3E3EB"/><text x="350" y="461" fill="#21212A">PLAN MODE</text><rect x="528" y="425" width="178" height="58" rx="8" fill="#F7F7FA" stroke="#E3E3EB"/><text x="552" y="461" fill="#21212A">MCP + SKILLS</text></g><text x="1118" y="565" text-anchor="end" fill="#666674" font-family="monospace" font-size="15" letter-spacing="2">DOCS.VIBEDGC.COM</text></svg>
